<?xml version="1.0" encoding="UTF-8" standalone="no"?>
<!-- Created with Inkscape (http://www.inkscape.org/) -->

<svg
   width="16"
   height="16"
   viewBox="0 0 4.2333333 4.2333336"
   version="1.1"
   id="svg8"
   sodipodi:docname="search.svg"
   inkscape:version="1.1 (c4e8f9ed74, 2021-05-24)"
   xmlns:inkscape="http://www.inkscape.org/namespaces/inkscape"
   xmlns:sodipodi="http://sodipodi.sourceforge.net/DTD/sodipodi-0.dtd"
   xmlns="http://www.w3.org/2000/svg"
   xmlns:svg="http://www.w3.org/2000/svg"
   xmlns:rdf="http://www.w3.org/1999/02/22-rdf-syntax-ns#"
   xmlns:cc="http://creativecommons.org/ns#"
   xmlns:dc="http://purl.org/dc/elements/1.1/">
  <sodipodi:namedview
     id="namedview9"
     pagecolor="#ffffff"
     bordercolor="#666666"
     borderopacity="1.0"
     inkscape:pageshadow="2"
     inkscape:pageopacity="0.0"
     inkscape:pagecheckerboard="0"
     showgrid="false"
     inkscape:zoom="12.530509"
     inkscape:cx="-5.1075339"
     inkscape:cy="9.0578921"
     inkscape:window-width="1366"
     inkscape:window-height="720"
     inkscape:window-x="0"
     inkscape:window-y="0"
     inkscape:window-maximized="1"
     inkscape:current-layer="svg8" />
  <defs
     id="defs2" />
  <metadata
     id="metadata5">
    <rdf:RDF>
      <cc:Work
         rdf:about="">
        <dc:format>image/svg+xml</dc:format>
        <dc:type
           rdf:resource="http://purl.org/dc/dcmitype/StillImage" />
      </cc:Work>
    </rdf:RDF>
  </metadata>
  <path
     id="path866"
     style="color:#000000;fill:#508dd5;fill-opacity:1;stroke-width:3.77953;stroke-linecap:round;stroke-linejoin:round;-inkscape-stroke:none;paint-order:stroke fill markers"
     d="M 9.4414062 0.1484375 C 5.9106522 0.1484375 3.0332031 3.0317462 3.0332031 6.5625 C 3.0332031 8.0301649 3.530741 9.3847974 4.3652344 10.466797 L 0.38867188 14.439453 A 0.85073785 0.85073785 0 0 0 1.5917969 15.642578 L 5.5722656 11.666016 C 6.6483748 12.484236 7.9896243 12.970703 9.4414062 12.970703 C 12.97216 12.970703 15.855469 10.093254 15.855469 6.5625 C 15.855469 3.0317462 12.97216 0.1484375 9.4414062 0.1484375 z M 9.4414062 1.8457031 C 12.053413 1.8457031 14.150391 3.9504935 14.150391 6.5625 C 14.150391 9.1745069 12.053413 11.271484 9.4414062 11.271484 C 6.8293994 11.271484 4.7324219 9.1745069 4.7324219 6.5625 C 4.7324219 3.9504935 6.8293994 1.8457031 9.4414062 1.8457031 z "
     transform="scale(0.26458334)" />
</svg>
